<?xml version="1.0" encoding="UTF-8"?>
<svg width="92px" height="37px" viewBox="0 0 92 37" version="1.1" xmlns="http://www.w3.org/2000/svg">
  <title>NHS</title>
  <g id="NHS" fill-rule="nonzero" fill="#005eb8">
    <path d="M88.1,4.4 L86.2,10.3 C84.1,9.4 81.9,8.9 79.6,8.9 C76.4,8.9 73.9,9.4 73.9,11.8 C73.9,16 85.5,14.4 85.5,23.4 C85.5,31.6 77.8,33.7 70.9,33.7 C67.8,33.6 64.7,33.1 61.7,32.2 L63.6,26.2 C65.9,27.4 68.4,27.9 71,27.9 C73.5,27.9 77.4,27.4 77.4,24.4 C77.4,19.6 65.8,21.4 65.8,13.1 C65.8,5.4 72.5,3.1 79.1,3.1 C82.7,3 86.1,3.4 88.1,4.4 L88.1,4.4 Z M65.2,3.6 L59,33.2 L51,33.2 L53.6,20.5 L44.2,20.5 L41.5,33.2 L33.5,33.2 L39.8,3.6 L47.7,3.6 L45.4,14.9 L54.8,14.9 L57.2,3.6 L65.2,3.6 Z M36.8,3.6 L30.5,33.2 L20.6,33.2 L14.3,12.7 L14.2,12.7 L10.1,33.2 L2.6,33.2 L8.9,3.6 L18.9,3.6 L25,24.1 L25.1,24.1 L29.3,3.6 L36.8,3.6 Z M91.5,0 L0,0 L0,36.9 L91.5,36.9 L91.5,0 Z"/>
  </g>
</svg>
